<svg width="24" height="24" viewBox="0 0 24 24" fill="none" xmlns="http://www.w3.org/2000/svg">
<path d="M2 4.22222H4.77778L6.59111 9.66333C7.03357 10.991 7.8826 12.1457 9.01791 12.964C10.1532 13.7822 11.5172 14.2224 12.9167 14.2222H15.8889C17.5097 14.2222 19.064 13.5784 20.2101 12.4323C21.3562 11.2863 22 9.73188 22 8.11111C22 6.49034 21.3562 4.93596 20.2101 3.7899C19.064 2.64385 17.5097 2 15.8889 2H15.3333V8.66667M6.44444 8.66667H22M9.77778 17.5556L10.8889 14.2222M17.5556 14.2222L18.6667 17.5556M6.44444 19.7778C6.44444 20.3671 6.67857 20.9324 7.09532 21.3491C7.51207 21.7659 8.0773 22 8.66667 22C9.25604 22 9.82127 21.7659 10.238 21.3491C10.6548 20.9324 10.8889 20.3671 10.8889 19.7778C10.8889 19.1884 10.6548 18.6232 10.238 18.2064C9.82127 17.7897 9.25604 17.5556 8.66667 17.5556C8.0773 17.5556 7.51207 17.7897 7.09532 18.2064C6.67857 18.6232 6.44444 19.1884 6.44444 19.7778ZM17.5556 19.7778C17.5556 20.3671 17.7897 20.9324 18.2064 21.3491C18.6232 21.7659 19.1884 22 19.7778 22C20.3671 22 20.9324 21.7659 21.3491 21.3491C21.7659 20.9324 22 20.3671 22 19.7778C22 19.1884 21.7659 18.6232 21.3491 18.2064C20.9324 17.7897 20.3671 17.5556 19.7778 17.5556C19.1884 17.5556 18.6232 17.7897 18.2064 18.2064C17.7897 18.6232 17.5556 19.1884 17.5556 19.7778Z" stroke="#D21957" stroke-width="2.5" stroke-linecap="round" stroke-linejoin="round"/>
</svg>
