<svg width="24" height="24" viewBox="0 0 24 24" fill="none" xmlns="http://www.w3.org/2000/svg">
<path d="M4.41211 5.67188L6.00586 10.9831M13.0146 17.9944L18.3284 19.5881M11.6045 12.397L18.8032 5.19824M2 3.875C2 4.12123 2.0485 4.36505 2.14273 4.59253C2.23695 4.82002 2.37506 5.02672 2.54917 5.20083C2.72328 5.37494 2.92998 5.51305 3.15747 5.60727C3.38495 5.7015 3.62877 5.75 3.875 5.75C4.12123 5.75 4.36505 5.7015 4.59253 5.60727C4.82002 5.51305 5.02672 5.37494 5.20083 5.20083C5.37494 5.02672 5.51305 4.82002 5.60727 4.59253C5.7015 4.36505 5.75 4.12123 5.75 3.875C5.75 3.62877 5.7015 3.38495 5.60727 3.15747C5.51305 2.92998 5.37494 2.72328 5.20083 2.54917C5.02672 2.37506 4.82002 2.23695 4.59253 2.14273C4.36505 2.0485 4.12123 2 3.875 2C3.62877 2 3.38495 2.0485 3.15747 2.14273C2.92998 2.23695 2.72328 2.37506 2.54917 2.54917C2.37506 2.72328 2.23695 2.92998 2.14273 3.15747C2.0485 3.38495 2 3.62877 2 3.875ZM18.25 3.875C18.25 4.37228 18.4475 4.84919 18.7992 5.20083C19.1508 5.55246 19.6277 5.75 20.125 5.75C20.6223 5.75 21.0992 5.55246 21.4508 5.20083C21.8025 4.84919 22 4.37228 22 3.875C22 3.37772 21.8025 2.90081 21.4508 2.54917C21.0992 2.19754 20.6223 2 20.125 2C19.6277 2 19.1508 2.19754 18.7992 2.54917C18.4475 2.90081 18.25 3.37772 18.25 3.875ZM18.25 20.125C18.25 20.6223 18.4475 21.0992 18.7992 21.4508C19.1508 21.8025 19.6277 22 20.125 22C20.6223 22 21.0992 21.8025 21.4508 21.4508C21.8025 21.0992 22 20.6223 22 20.125C22 19.6277 21.8025 19.1508 21.4508 18.7992C21.0992 18.4475 20.6223 18.25 20.125 18.25C19.6277 18.25 19.1508 18.4475 18.7992 18.7992C18.4475 19.1508 18.25 19.6277 18.25 20.125ZM2 16.375C2 17.8668 2.59263 19.2976 3.64752 20.3525C4.70242 21.4074 6.13316 22 7.625 22C9.11684 22 10.5476 21.4074 11.6025 20.3525C12.6574 19.2976 13.25 17.8668 13.25 16.375C13.25 14.8832 12.6574 13.4524 11.6025 12.3975C10.5476 11.3426 9.11684 10.75 7.625 10.75C6.13316 10.75 4.70242 11.3426 3.64752 12.3975C2.59263 13.4524 2 14.8832 2 16.375Z" stroke="#D21957" stroke-width="2.5" stroke-linecap="round" stroke-linejoin="round"/>
</svg>
