<svg width="24" height="24" viewBox="0 0 24 24" fill="none" xmlns="http://www.w3.org/2000/svg">
<path d="M10.8889 19.7778H17C18.0314 19.7778 19.0206 19.3681 19.7499 18.6388C20.4792 17.9094 20.8889 16.9203 20.8889 15.8889C20.8889 14.8575 20.4792 13.8683 19.7499 13.139C19.0206 12.4097 18.0314 12 17 12H8.11111C7.07971 12 6.09056 11.5903 5.36125 10.861C4.63194 10.1317 4.22222 9.14251 4.22222 8.11111C4.22222 7.07971 4.63194 6.09056 5.36125 5.36125C6.09056 4.63194 7.07971 4.22222 8.11111 4.22222H13.1111M2 19.7778C2 20.3671 2.23413 20.9324 2.65087 21.3491C3.06762 21.7659 3.63285 22 4.22222 22C4.81159 22 5.37682 21.7659 5.79357 21.3491C6.21032 20.9324 6.44444 20.3671 6.44444 19.7778C6.44444 19.1884 6.21032 18.6232 5.79357 18.2064C5.37682 17.7897 4.81159 17.5556 4.22222 17.5556C3.63285 17.5556 3.06762 17.7897 2.65087 18.2064C2.23413 18.6232 2 19.1884 2 19.7778ZM19.7778 6.44444C20.3671 6.44444 20.9324 6.21032 21.3491 5.79357C21.7659 5.37682 22 4.81159 22 4.22222C22 3.63285 21.7659 3.06762 21.3491 2.65087C20.9324 2.23413 20.3671 2 19.7778 2C19.1884 2 18.6232 2.23413 18.2064 2.65087C17.7897 3.06762 17.5556 3.63285 17.5556 4.22222C17.5556 4.81159 17.7897 5.37682 18.2064 5.79357C18.6232 6.21032 19.1884 6.44444 19.7778 6.44444Z" stroke="#D21957" stroke-width="2.5" stroke-linecap="round" stroke-linejoin="round"/>
</svg>
