<svg width="26" height="24" viewBox="0 0 26 24" fill="none" xmlns="http://www.w3.org/2000/svg">
<path d="M6.88889 7H19.1111M6.88889 12H19.1111M6.88889 17H11.8121M2 4.5C2 3.83696 2.25754 3.20108 2.71596 2.73223C3.17438 2.26339 3.79614 2.00001 4.44445 2H21.5556C22.2039 2.00001 22.8257 2.26339 23.2841 2.73223C23.7425 3.20108 24 3.83696 24 4.5V19.5C24 20.1631 23.7425 20.7989 23.2841 21.2678C22.8257 21.7366 22.2039 22 21.5556 22H4.44445C3.79614 22 3.17438 21.7366 2.71596 21.2678C2.25754 20.7989 2 20.1631 2 19.5V4.5Z" stroke="#D21957" stroke-width="2.5" stroke-linecap="round" stroke-linejoin="round"/>
</svg>
