<svg width="24" height="24" viewBox="0 0 24 24" fill="none" xmlns="http://www.w3.org/2000/svg">
<path d="M11.0988 9.49042L2.70216 17.9272C2.47965 18.1482 2.30305 18.4111 2.18255 18.7007C2.06204 18.9902 2 19.3008 2 19.6144C2 19.9281 2.06204 20.2386 2.18255 20.5282C2.30305 20.8177 2.47965 21.0806 2.70216 21.3017C3.15181 21.7489 3.76024 22 4.39445 22C5.02866 22 5.63709 21.7489 6.08674 21.3017L14.5107 12.9024M18.726 15.5102L21.667 12.569C21.8802 12.3557 22 12.0665 22 11.7649C22 11.4633 21.8802 11.1741 21.667 10.9608L13.0395 2.333C12.8262 2.11978 12.537 2 12.2355 2C11.9339 2 11.6447 2.11978 11.4314 2.333L8.49035 5.27415C8.27714 5.48743 8.15737 5.77666 8.15737 6.07824C8.15737 6.37982 8.27714 6.66906 8.49035 6.88234L17.1178 15.5102C17.3311 15.7234 17.6203 15.8432 17.9219 15.8432C18.2235 15.8432 18.5127 15.7234 18.726 15.5102Z" stroke="#D21957" stroke-width="2.5" stroke-linecap="round" stroke-linejoin="round"/>
</svg>
