<svg width="28" height="24" viewBox="0 0 28 24" fill="none" xmlns="http://www.w3.org/2000/svg">
<path d="M14 22C10.8174 22 7.76516 20.5952 5.51472 18.0948C3.26428 15.5943 2 12.2029 2 8.66667C3.57586 8.66667 5.13629 9.01154 6.5922 9.68161C8.04811 10.3517 9.37098 11.3338 10.4853 12.5719C11.5996 13.81 12.4835 15.2799 13.0866 16.8976C13.6896 18.5152 14 20.249 14 22ZM14 22C17.1826 22 20.2348 20.5952 22.4853 18.0948C24.7357 15.5943 26 12.2029 26 8.66667C22.8174 8.66667 19.7652 10.0714 17.5147 12.5719C15.2643 15.0724 14 18.4638 14 22ZM14 2C15.2093 3.28274 16.1558 4.83989 16.7749 6.56549C17.3941 8.29109 17.6714 10.1446 17.588 12M10.4098 12C10.3264 10.1446 10.6037 8.29109 11.2229 6.56549C11.842 4.83989 12.7885 3.28274 13.9978 2" stroke="#D21957" stroke-width="2.5" stroke-linecap="round" stroke-linejoin="round"/>
</svg>
