<svg width="16" height="24" viewBox="0 0 16 24" fill="none" xmlns="http://www.w3.org/2000/svg">
<path d="M5.29574 4.72184C5.29574 5.44372 5.58043 6.13603 6.08719 6.64647C6.59395 7.15692 7.28126 7.44368 7.99793 7.44368C8.7146 7.44368 9.40191 7.15692 9.90867 6.64647C10.4154 6.13603 10.7001 5.44372 10.7001 4.72184C10.7001 3.99996 10.4154 3.30765 9.90867 2.79721C9.40191 2.28676 8.7146 2 7.99793 2C7.28126 2 6.59395 2.28676 6.08719 2.79721C5.58043 3.30765 5.29574 3.99996 5.29574 4.72184Z" stroke="#D21957" stroke-width="2.5" stroke-linecap="round" stroke-linejoin="round"/>
<path d="M8 22L13.5071 16.4518C13.8203 16.1403 14.0693 15.7696 14.2397 15.3608C14.4101 14.952 14.4986 14.5134 14.5 14.07C14.5014 13.6267 14.4158 13.1875 14.248 12.7776C14.0802 12.3677 13.8336 11.9953 13.5224 11.6818C13.2112 11.3684 12.8415 11.12 12.4346 10.951C12.0277 10.782 11.5916 10.6957 11.1514 10.6972C10.7113 10.6986 10.2758 10.7877 9.87 10.9593C9.46418 11.131 9.09608 11.3818 8.78688 11.6973L8 12.4888L7.21312 11.6973C6.90392 11.3818 6.53582 11.131 6.13001 10.9593C5.72419 10.7877 5.28869 10.6986 4.84855 10.6972C4.40842 10.6957 3.97235 10.782 3.56544 10.951C3.15853 11.12 2.78883 11.3684 2.4776 11.6818C2.16638 11.9953 1.91978 12.3677 1.75201 12.7776C1.58423 13.1875 1.49859 13.6267 1.50002 14.07C1.50144 14.5134 1.5899 14.952 1.76031 15.3608C1.93071 15.7696 2.1797 16.1403 2.49293 16.4518L8 22Z" stroke="#D21957" stroke-width="2.5" stroke-linecap="round" stroke-linejoin="round"/>
</svg>
