<svg width="26" height="24" viewBox="0 0 26 24" fill="none" xmlns="http://www.w3.org/2000/svg">
<path d="M20.6667 6.978C21.6833 6.978 22.6584 7.37366 23.3772 8.07796C24.0961 8.78225 24.5 9.73748 24.5 10.7335C24.5 11.7295 24.0961 12.6847 23.3772 13.389C22.6584 14.0933 21.6833 14.489 20.6667 14.489M10.4444 6.978V20.7482C10.4444 21.0802 10.3098 21.3986 10.0702 21.6333C9.83056 21.8681 9.50555 22 9.16667 22H7.88889C7.55 22 7.22499 21.8681 6.98536 21.6333C6.74573 21.3986 6.61111 21.0802 6.61111 20.7482V14.489M13 6.98037L18.7807 2.26096C18.9486 2.1239 19.153 2.03657 19.3698 2.00922C19.5866 1.98188 19.8069 2.01564 20.0048 2.10655C20.2028 2.19746 20.3702 2.34176 20.4874 2.52253C20.6046 2.70331 20.6668 2.91307 20.6667 3.12723V18.3445C20.6668 18.5587 20.6046 18.7684 20.4874 18.9492C20.3702 19.13 20.2028 19.2743 20.0048 19.3652C19.8069 19.4561 19.5866 19.4899 19.3698 19.4625C19.153 19.4352 18.9486 19.3479 18.7807 19.2108L13 14.4914H2.77778C2.43889 14.4914 2.11388 14.3595 1.87425 14.1247C1.63462 13.89 1.5 13.5716 1.5 13.2395V8.23221C1.5 7.9002 1.63462 7.58179 1.87425 7.34703C2.11388 7.11226 2.43889 6.98037 2.77778 6.98037H13Z" stroke="#D21957" stroke-width="2.5" stroke-linecap="round" stroke-linejoin="round"/>
</svg>
