<svg width="24" height="24" viewBox="0 0 24 24" fill="none" xmlns="http://www.w3.org/2000/svg">
<path d="M17.5556 17.5556H19.7778C20.3671 17.5556 20.9324 17.3214 21.3491 16.9047C21.7659 16.4879 22 15.9227 22 15.3333V10.8889C22 10.2995 21.7659 9.73429 21.3491 9.31754C20.9324 8.90079 20.3671 8.66667 19.7778 8.66667H4.22222C3.63285 8.66667 3.06762 8.90079 2.65087 9.31754C2.23413 9.73429 2 10.2995 2 10.8889V15.3333C2 15.9227 2.23413 16.4879 2.65087 16.9047C3.06762 17.3214 3.63285 17.5556 4.22222 17.5556H6.44444M17.5556 8.66667V4.22222C17.5556 3.63285 17.3214 3.06762 16.9047 2.65087C16.4879 2.23413 15.9227 2 15.3333 2H8.66667C8.0773 2 7.51207 2.23413 7.09532 2.65087C6.67857 3.06762 6.44444 3.63285 6.44444 4.22222V8.66667M6.44444 15.3333C6.44444 14.744 6.67857 14.1787 7.09532 13.762C7.51207 13.3452 8.0773 13.1111 8.66667 13.1111H15.3333C15.9227 13.1111 16.4879 13.3452 16.9047 13.762C17.3214 14.1787 17.5556 14.744 17.5556 15.3333V19.7778C17.5556 20.3671 17.3214 20.9324 16.9047 21.3491C16.4879 21.7659 15.9227 22 15.3333 22H8.66667C8.0773 22 7.51207 21.7659 7.09532 21.3491C6.67857 20.9324 6.44444 20.3671 6.44444 19.7778V15.3333Z" stroke="#D21957" stroke-width="2.5" stroke-linecap="round" stroke-linejoin="round"/>
</svg>
