<svg width="24" height="24" viewBox="0 0 24 24" fill="none" xmlns="http://www.w3.org/2000/svg">
<path d="M2 9.77778H4.22222M2 14.2222H4.22222M9.77778 2V4.22222M14.2222 2V4.22222M22 9.77778H19.7778M22 14.2222H19.7778M14.2222 22V19.7778M9.77778 22V19.7778M4.22222 5.33333C4.22222 5.03865 4.33929 4.75603 4.54766 4.54766C4.75603 4.33929 5.03865 4.22222 5.33333 4.22222H18.6667C18.9614 4.22222 19.244 4.33929 19.4523 4.54766C19.6607 4.75603 19.7778 5.03865 19.7778 5.33333V18.6667C19.7778 18.9614 19.6607 19.244 19.4523 19.4523C19.244 19.6607 18.9614 19.7778 18.6667 19.7778H5.33333C5.03865 19.7778 4.75603 19.6607 4.54766 19.4523C4.33929 19.244 4.22222 18.9614 4.22222 18.6667V5.33333ZM8.66667 8.66667H15.3333V15.3333H8.66667V8.66667Z" stroke="#D21957" stroke-width="2.5" stroke-linecap="round" stroke-linejoin="round"/>
</svg>
