<svg width="24" height="24" viewBox="0 0 24 24" fill="none" xmlns="http://www.w3.org/2000/svg">
<path d="M16.4444 2L12 6.70588L7.55556 2M15.3333 6.70588V22M18.6667 16.1176V16.1294M18.6667 12.5882V12.6M2 9.05882C2 8.43478 2.23413 7.83631 2.65087 7.39504C3.06762 6.95378 3.63285 6.70588 4.22222 6.70588H19.7778C20.3671 6.70588 20.9324 6.95378 21.3491 7.39504C21.7659 7.83631 22 8.43478 22 9.05882V19.6471C22 20.2711 21.7659 20.8696 21.3491 21.3108C20.9324 21.7521 20.3671 22 19.7778 22H4.22222C3.63285 22 3.06762 21.7521 2.65087 21.3108C2.23413 20.8696 2 20.2711 2 19.6471V9.05882Z" stroke="#D21957" stroke-width="2.5" stroke-linecap="round" stroke-linejoin="round"/>
</svg>
