<svg width="24" height="24" viewBox="0 0 24 24" fill="none" xmlns="http://www.w3.org/2000/svg">
<path d="M7.55556 22H16.4444M12 17.2941V22M12 17.2941C13.4734 17.2941 14.8865 16.6744 15.9284 15.5712C16.9702 14.4681 17.5556 12.9719 17.5556 11.4118V2H6.44444V11.4118C6.44444 12.9719 7.02976 14.4681 8.07163 15.5712C9.1135 16.6744 10.5266 17.2941 12 17.2941ZM2 7.88235C2 8.50639 2.23413 9.10487 2.65087 9.54613C3.06762 9.9874 3.63285 10.2353 4.22222 10.2353C4.81159 10.2353 5.37682 9.9874 5.79357 9.54613C6.21032 9.10487 6.44444 8.50639 6.44444 7.88235C6.44444 7.25831 6.21032 6.65983 5.79357 6.21857C5.37682 5.77731 4.81159 5.52941 4.22222 5.52941C3.63285 5.52941 3.06762 5.77731 2.65087 6.21857C2.23413 6.65983 2 7.25831 2 7.88235ZM17.5556 7.88235C17.5556 8.50639 17.7897 9.10487 18.2064 9.54613C18.6232 9.9874 19.1884 10.2353 19.7778 10.2353C20.3671 10.2353 20.9324 9.9874 21.3491 9.54613C21.7659 9.10487 22 8.50639 22 7.88235C22 7.25831 21.7659 6.65983 21.3491 6.21857C20.9324 5.77731 20.3671 5.52941 19.7778 5.52941C19.1884 5.52941 18.6232 5.77731 18.2064 6.21857C17.7897 6.65983 17.5556 7.25831 17.5556 7.88235Z" stroke="#D21957" stroke-width="2.5" stroke-linecap="round" stroke-linejoin="round"/>
</svg>
