<svg width="24" height="24" viewBox="0 0 24 24" fill="none" xmlns="http://www.w3.org/2000/svg">
<path d="M6.70588 10.7474V20.7444C6.70588 21.0758 6.58193 21.3936 6.3613 21.628C6.14067 21.8623 5.84143 21.994 5.52941 21.994H3.17647C2.86445 21.994 2.56521 21.8623 2.34458 21.628C2.12395 21.3936 2 21.0758 2 20.7444V11.997C2 11.6656 2.12395 11.3477 2.34458 11.1134C2.56521 10.879 2.86445 10.7474 3.17647 10.7474H6.70588ZM6.70588 10.7474C7.95396 10.7474 9.15092 10.2207 10.0334 9.28334C10.916 8.34594 11.4118 7.07456 11.4118 5.74887V4.49925C11.4118 3.83641 11.6597 3.20071 12.1009 2.73201C12.5422 2.26331 13.1407 2 13.7647 2C14.3887 2 14.9872 2.26331 15.4285 2.73201C15.8697 3.20071 16.1176 3.83641 16.1176 4.49925V10.7474H19.6471C20.2711 10.7474 20.8696 11.0107 21.3108 11.4794C21.7521 11.9481 22 12.5838 22 13.2466L20.8235 19.4947C20.6543 20.2613 20.3334 20.9196 19.909 21.3704C19.4846 21.8211 18.9798 22.04 18.4706 21.994H10.2353C9.29924 21.994 8.40152 21.599 7.73962 20.896C7.07773 20.1929 6.70588 19.2394 6.70588 18.2451" stroke="#D21957" stroke-width="2.5" stroke-linecap="round" stroke-linejoin="round"/>
</svg>
