<svg width="24" height="24" viewBox="0 0 24 24" fill="none" xmlns="http://www.w3.org/2000/svg">
<path d="M22 10.8889V7.55556C22 6.96619 21.7659 6.40095 21.3491 5.98421C20.9324 5.56746 20.3671 5.33333 19.7778 5.33333H13.1111M13.1111 5.33333L16.4444 8.66667M13.1111 5.33333L16.4444 2M2 13.1111V16.4444C2 17.0338 2.23413 17.599 2.65087 18.0158C3.06762 18.4325 3.63285 18.6667 4.22222 18.6667H10.8889M10.8889 18.6667L7.55556 15.3333M10.8889 18.6667L7.55556 22M2 5.33333C2 6.21739 2.35119 7.06524 2.97631 7.69036C3.60143 8.31548 4.44928 8.66667 5.33333 8.66667C6.21739 8.66667 7.06524 8.31548 7.69036 7.69036C8.31548 7.06524 8.66667 6.21739 8.66667 5.33333C8.66667 4.44928 8.31548 3.60143 7.69036 2.97631C7.06524 2.35119 6.21739 2 5.33333 2C4.44928 2 3.60143 2.35119 2.97631 2.97631C2.35119 3.60143 2 4.44928 2 5.33333ZM15.3333 18.6667C15.3333 19.5507 15.6845 20.3986 16.3096 21.0237C16.9348 21.6488 17.7826 22 18.6667 22C19.5507 22 20.3986 21.6488 21.0237 21.0237C21.6488 20.3986 22 19.5507 22 18.6667C22 17.7826 21.6488 16.9348 21.0237 16.3096C20.3986 15.6845 19.5507 15.3333 18.6667 15.3333C17.7826 15.3333 16.9348 15.6845 16.3096 16.3096C15.6845 16.9348 15.3333 17.7826 15.3333 18.6667Z" stroke="#D21957" stroke-width="2.5" stroke-linecap="round" stroke-linejoin="round"/>
</svg>
