<svg width="26" height="24" viewBox="0 0 26 24" fill="none" xmlns="http://www.w3.org/2000/svg">
<path d="M2 22H24M21.5556 22V17.2941M21.5556 17.2941C22.2039 17.2941 22.8256 17.0462 23.284 16.605C23.7425 16.1637 24 15.5652 24 14.9412V12.5882C24 11.9642 23.7425 11.3657 23.284 10.9245C22.8256 10.4832 22.2039 10.2353 21.5556 10.2353C20.9072 10.2353 20.2855 10.4832 19.8271 10.9245C19.3687 11.3657 19.1111 11.9642 19.1111 12.5882V14.9412C19.1111 15.5652 19.3687 16.1637 19.8271 16.605C20.2855 17.0462 20.9072 17.2941 21.5556 17.2941ZM15.4444 22V5.52941C15.4444 4.59335 15.0581 3.69563 14.3705 3.03374C13.6829 2.37185 12.7502 2 11.7778 2H6.88889C5.91643 2 4.9838 2.37185 4.29616 3.03374C3.60853 3.69563 3.22222 4.59335 3.22222 5.52941V22M9.33333 17.2941V22M8.11111 12.5882H10.5556M8.11111 7.88235H10.5556" stroke="#D21957" stroke-width="2.5" stroke-linecap="round" stroke-linejoin="round"/>
</svg>
