<svg width="14" height="24" viewBox="0 0 14 24" fill="none" xmlns="http://www.w3.org/2000/svg">
<path d="M7.26191 6.21053L9.88095 17.7895L5.69048 22L1.5 17.7895L4.11905 6.21053M7.26191 6.21053L8.30219 3.42211C8.36159 3.26288 8.38172 3.09157 8.36085 2.92283C8.33998 2.75409 8.27874 2.59294 8.18236 2.45316C8.08599 2.31339 7.95735 2.19916 7.80745 2.12024C7.65755 2.04132 7.49085 2.00006 7.32162 2H4.05933C3.8901 2.00006 3.72341 2.04132 3.57351 2.12024C3.42361 2.19916 3.29497 2.31339 3.19859 2.45316C3.10221 2.59294 3.04097 2.75409 3.0201 2.92283C2.99924 3.09157 3.01936 3.26288 3.07876 3.42211L4.11905 6.21053M7.26191 6.21053H4.11905M7.26191 6.21053L12.5 12" stroke="#D21957" stroke-width="2.5" stroke-linecap="round" stroke-linejoin="round"/>
</svg>
