<svg width="24" height="24" viewBox="0 0 24 24" fill="none" xmlns="http://www.w3.org/2000/svg">
<path d="M7.55556 7.88235H16.4444M7.55556 12.5882H14.2222M18.6667 2C19.5507 2 20.3986 2.37185 21.0237 3.03374C21.6488 3.69563 22 4.59335 22 5.52941V14.9412C22 15.8772 21.6488 16.775 21.0237 17.4368C20.3986 18.0987 19.5507 18.4706 18.6667 18.4706H13.1111L7.55556 22V18.4706H5.33333C4.44928 18.4706 3.60143 18.0987 2.97631 17.4368C2.35119 16.775 2 15.8772 2 14.9412V5.52941C2 4.59335 2.35119 3.69563 2.97631 3.03374C3.60143 2.37185 4.44928 2 5.33333 2H18.6667Z" stroke="#D21957" stroke-width="2.5" stroke-linecap="round" stroke-linejoin="round"/>
</svg>
