<svg width="22" height="22" viewBox="0 0 22 22" fill="none" xmlns="http://www.w3.org/2000/svg">
<path d="M10.4706 18H4.11765C3.55601 18 3.01738 17.7893 2.62024 17.4142C2.22311 17.0391 2 16.5304 2 16M2 16V4C2 3.46957 2.22311 2.96086 2.62024 2.58579C3.01738 2.21071 3.55601 2 4.11765 2H16.8235V7M2 16C2 15.4696 2.22311 14.9609 2.62024 14.5858C3.01738 14.2107 3.55601 14 4.11765 14H11.5294M13.6471 17L16.8235 20M16.8235 20L20 17M16.8235 20V11" stroke="black" stroke-width="2.5" stroke-linecap="round" stroke-linejoin="round"/>
</svg>
