<svg width="860" height="550" viewBox="0 0 860 550" fill="none" xmlns="http://www.w3.org/2000/svg">
<rect x="1" y="1" width="858" height="548" rx="11" fill="white"/>
<rect x="1" y="1" width="858" height="548" rx="11" stroke="#E3E7EB" stroke-width="2"/>
<mask id="path-2-inside-1_2767_9437" fill="white">
<path d="M16 16H844V54H16V16Z"/>
</mask>
<path d="M844 52H16V56H844V52Z" fill="#E3E7EB" mask="url(#path-2-inside-1_2767_9437)"/>
<path d="M28.8571 28C29.918 28 30.9354 27.5786 31.6856 26.8284C32.4357 26.0783 32.8571 25.0609 32.8571 24C32.8571 22.9391 32.4357 21.9217 31.6856 21.1716C30.9354 20.4214 29.918 20 28.8571 20H22V28M28.8571 28H22M28.8571 28H30C31.0609 28 32.0783 28.4214 32.8284 29.1716C33.5786 29.9217 34 30.9391 34 32C34 33.0609 33.5786 34.0783 32.8284 34.8284C32.0783 35.5786 31.0609 36 30 36H22V28" stroke="black" stroke-width="2" stroke-linecap="round" stroke-linejoin="round"/>
<path d="M60.5714 20H67.4286M56 36H62.8571M64 20L59.4286 36" stroke="black" stroke-width="2" stroke-linecap="round" stroke-linejoin="round"/>
<path d="M90.2857 20V25.7143C90.2857 27.2298 90.8878 28.6833 91.9594 29.7549C93.031 30.8265 94.4845 31.4286 96 31.4286C97.5155 31.4286 98.969 30.8265 100.041 29.7549C101.112 28.6833 101.714 27.2298 101.714 25.7143V20M88 36H104" stroke="black" stroke-width="2" stroke-linecap="round" stroke-linejoin="round"/>
<rect width="2" height="24" transform="translate(132 16)" fill="#E3E7EB"/>
<path d="M169 22H178M169 28H178M170 34H178M162 32C162 31.4696 162.211 30.9609 162.586 30.5858C162.961 30.2107 163.47 30 164 30C164.53 30 165.039 30.2107 165.414 30.5858C165.789 30.9609 166 31.4696 166 32C166 32.591 165.5 33 165 33.5L162 36H166M164 26V20L162 22" stroke="black" stroke-width="2" stroke-linecap="round" stroke-linejoin="round"/>
<path d="M205 21H213M205 25H210M205 31H213M205 35H210M195 21C195 20.7348 195.105 20.4804 195.293 20.2929C195.48 20.1054 195.735 20 196 20H200C200.265 20 200.52 20.1054 200.707 20.2929C200.895 20.4804 201 20.7348 201 21V25C201 25.2652 200.895 25.5196 200.707 25.7071C200.52 25.8946 200.265 26 200 26H196C195.735 26 195.48 25.8946 195.293 25.7071C195.105 25.5196 195 25.2652 195 25V21ZM195 31C195 30.7348 195.105 30.4804 195.293 30.2929C195.48 30.1054 195.735 30 196 30H200C200.265 30 200.52 30.1054 200.707 30.2929C200.895 30.4804 201 30.7348 201 31V35C201 35.2652 200.895 35.5196 200.707 35.7071C200.52 35.8946 200.265 36 200 36H196C195.735 36 195.48 35.8946 195.293 35.7071C195.105 35.5196 195 35.2652 195 35V31Z" stroke="black" stroke-width="2" stroke-linecap="round" stroke-linejoin="round"/>
<path d="M229 21.1034L230.655 22.7586L233.414 20M229 27.7241L230.655 29.3793L233.414 26.6207M229 34.3448L230.655 36L233.414 33.2414M237.276 21.6552H247.207M237.276 28.2759H247.207M237.276 34.8966H247.207" stroke="black" stroke-width="2" stroke-linecap="round" stroke-linejoin="round"/>
<rect width="2" height="24" transform="translate(274 16)" fill="#E3E7EB"/>
<path d="M301 20H322.333M306.333 28H317M303.667 36H319.667" stroke="black" stroke-width="2" stroke-linecap="round" stroke-linejoin="round"/>
<path d="M335 20H356.333M335 28H348.333M335 36H353.667" stroke="black" stroke-width="2" stroke-linecap="round" stroke-linejoin="round"/>
<path d="M369 20H390.333M377 28H390.333M371.667 36H390.333" stroke="black" stroke-width="2" stroke-linecap="round" stroke-linejoin="round"/>
<rect width="2" height="24" transform="translate(416 16)" fill="#E3E7EB"/>
<path d="M456.667 24.4444H456.676M446 31.5554L450.444 27.111C451.269 26.3172 452.286 26.3172 453.111 27.111L457.556 31.5554M455.778 29.7776L456.667 28.8887C457.492 28.095 458.508 28.095 459.333 28.8887L462 31.5554M446 22.6667C446 21.9594 446.281 21.2811 446.781 20.781C447.281 20.281 447.959 20 448.667 20H459.333C460.041 20 460.719 20.281 461.219 20.781C461.719 21.2811 462 21.9594 462 22.6667V33.3333C462 34.0406 461.719 34.7189 461.219 35.219C460.719 35.719 460.041 36 459.333 36H448.667C447.959 36 447.281 35.719 446.781 35.219C446.281 34.7189 446 34.0406 446 33.3333V22.6667Z" stroke="black" stroke-width="2" stroke-linecap="round" stroke-linejoin="round"/>
<path d="M485 31.0005L491 25.0005M487 22.0003L487.463 21.4643C488.401 20.5266 489.673 19.9999 490.999 20C492.325 20.0001 493.597 20.527 494.535 21.4648C495.472 22.4026 495.999 23.6745 495.999 25.0007C495.999 26.3268 495.472 27.5986 494.534 28.5363L494 29.0003M489 34.0005L488.603 34.5345C487.654 35.4727 486.374 35.9989 485.04 35.9989C483.705 35.9989 482.425 35.4727 481.476 34.5345C481.008 34.0721 480.637 33.5215 480.384 32.9146C480.13 32.3078 480 31.6566 480 30.999C480 30.3413 480.13 29.6902 480.384 29.0833C480.637 28.4765 481.008 27.9259 481.476 27.4635L482 27.0005" stroke="black" stroke-width="2" stroke-linecap="round" stroke-linejoin="round"/>
<path d="M524.772 23.6483L519.183 29.2377C518.84 29.5798 518.648 30.0438 518.648 30.5276C518.648 31.0114 518.84 31.4753 519.183 31.8174C519.525 32.1595 519.989 32.3517 520.472 32.3517C520.956 32.3517 521.42 32.1595 521.762 31.8174L527.352 26.228C528.036 25.5438 528.42 24.6159 528.42 23.6483C528.42 22.6807 528.036 21.7527 527.352 21.0686C526.668 20.3844 525.74 20 524.772 20C523.804 20 522.876 20.3844 522.192 21.0686L516.603 26.658C515.577 27.6843 515 29.0762 515 30.5276C515 31.9789 515.577 33.3709 516.603 34.3972C517.629 35.4234 519.021 36 520.472 36C521.924 36 523.316 35.4234 524.342 34.3972L529.931 28.8077" stroke="black" stroke-width="2" stroke-linecap="round" stroke-linejoin="round"/>
<rect width="2" height="24" transform="translate(558 16)" fill="#E3E7EB"/>
<path d="M592.571 31.4286V23.4286C592.571 22.5193 592.933 21.6472 593.576 21.0042C594.219 20.3612 595.091 20 596 20C596.909 20 597.781 20.3612 598.424 21.0042C599.067 21.6472 599.429 22.5193 599.429 23.4286V31.4286M592.571 26.8571H599.429M588 36H604" stroke="black" stroke-width="2" stroke-linecap="round" stroke-linejoin="round"/>
<path d="M633.429 31.4286L638 36M638 31.4286L633.429 36M622 21.1429V20H634.571V21.1429M622 36H626.571M628.857 20L624.286 36" stroke="black" stroke-width="2" stroke-linecap="round" stroke-linejoin="round"/>
<path d="M665.264 29.432C665.48 29.976 665.6 30.576 665.6 31.2C665.6 32.616 664.984 33.896 664 34.768M664 34.768C663.124 35.5633 661.983 36.0027 660.8 36C658.152 36 656 33.848 656 31.2C656 28.992 657.504 27.12 659.536 26.568M664 34.768C664.876 35.5633 666.017 36.0027 667.2 36C669.848 36 672 33.848 672 31.2C672 28.992 670.496 27.12 668.464 26.568M659.2 24.8C659.2 26.073 659.706 27.2939 660.606 28.1941C661.506 29.0943 662.727 29.6 664 29.6C665.273 29.6 666.494 29.0943 667.394 28.1941C668.294 27.2939 668.8 26.073 668.8 24.8C668.8 23.527 668.294 22.3061 667.394 21.4059C666.494 20.5057 665.273 20 664 20C662.727 20 661.506 20.5057 660.606 21.4059C659.706 22.3061 659.2 23.527 659.2 24.8Z" stroke="black" stroke-width="2" stroke-linecap="round" stroke-linejoin="round"/>
<path d="M773.142 33.64C772.452 33.64 771.775 33.542 771.112 33.346C770.459 33.1407 769.908 32.8607 769.46 32.506L770.23 31.092C770.585 31.3813 771.014 31.6147 771.518 31.792C772.032 31.9693 772.564 32.058 773.114 32.058C773.758 32.058 774.262 31.9227 774.626 31.652C775 31.3813 775.186 31.0173 775.186 30.56C775.186 30.252 775.107 29.9813 774.948 29.748C774.799 29.5147 774.528 29.3373 774.136 29.216C773.754 29.0947 773.226 29.034 772.554 29.034H770.188L770.692 23.7H776.446V25.226H771.364L772.316 24.358L771.938 28.348L770.986 27.494H772.96C773.931 27.494 774.71 27.6247 775.298 27.886C775.896 28.138 776.33 28.4927 776.6 28.95C776.88 29.398 777.02 29.9113 777.02 30.49C777.02 31.0593 776.88 31.582 776.6 32.058C776.32 32.534 775.891 32.9167 775.312 33.206C774.743 33.4953 774.02 33.64 773.142 33.64ZM782.312 33.64C781.425 33.64 780.665 33.4533 780.03 33.08C779.395 32.6973 778.91 32.1467 778.574 31.428C778.238 30.7093 778.07 29.8227 778.07 28.768C778.07 27.648 778.271 26.7007 778.672 25.926C779.083 25.1513 779.647 24.5633 780.366 24.162C781.094 23.7607 781.929 23.56 782.872 23.56C783.367 23.56 783.838 23.6113 784.286 23.714C784.743 23.8167 785.131 23.9753 785.448 24.19L784.776 25.562C784.505 25.3847 784.211 25.2633 783.894 25.198C783.586 25.1233 783.259 25.086 782.914 25.086C781.99 25.086 781.257 25.3707 780.716 25.94C780.175 26.5093 779.904 27.3493 779.904 28.46C779.904 28.6373 779.909 28.8473 779.918 29.09C779.927 29.3233 779.96 29.5613 780.016 29.804L779.456 29.188C779.624 28.8053 779.853 28.488 780.142 28.236C780.441 27.9747 780.791 27.7787 781.192 27.648C781.603 27.5173 782.046 27.452 782.522 27.452C783.166 27.452 783.74 27.578 784.244 27.83C784.748 28.0727 785.149 28.4227 785.448 28.88C785.747 29.328 785.896 29.8553 785.896 30.462C785.896 31.106 785.737 31.666 785.42 32.142C785.103 32.618 784.673 32.9867 784.132 33.248C783.591 33.5093 782.984 33.64 782.312 33.64ZM782.214 32.212C782.587 32.212 782.919 32.1467 783.208 32.016C783.497 31.876 783.721 31.68 783.88 31.428C784.048 31.176 784.132 30.882 784.132 30.546C784.132 30.0327 783.955 29.6267 783.6 29.328C783.245 29.0293 782.769 28.88 782.172 28.88C781.78 28.88 781.435 28.9547 781.136 29.104C780.847 29.244 780.613 29.44 780.436 29.692C780.268 29.944 780.184 30.2333 780.184 30.56C780.184 30.8587 780.263 31.134 780.422 31.386C780.581 31.638 780.809 31.8387 781.108 31.988C781.416 32.1373 781.785 32.212 782.214 32.212ZM789.927 33.64C789.237 33.64 788.56 33.542 787.897 33.346C787.244 33.1407 786.693 32.8607 786.245 32.506L787.029 31.092C787.384 31.3813 787.813 31.6147 788.317 31.792C788.821 31.9693 789.349 32.058 789.899 32.058C790.553 32.058 791.061 31.9273 791.425 31.666C791.789 31.3953 791.971 31.0313 791.971 30.574C791.971 30.126 791.803 29.7713 791.467 29.51C791.131 29.2487 790.59 29.118 789.843 29.118H788.947V27.872L791.747 24.54L791.985 25.226H786.721V23.7H793.399V24.918L790.599 28.25L789.647 27.69H790.193C791.397 27.69 792.298 27.9607 792.895 28.502C793.502 29.034 793.805 29.72 793.805 30.56C793.805 31.1107 793.665 31.6193 793.385 32.086C793.105 32.5527 792.676 32.9307 792.097 33.22C791.528 33.5 790.805 33.64 789.927 33.64ZM797.829 34.9L802.449 21.712H804.017L799.397 34.9H797.829ZM807.803 33.5V32.282L811.695 28.586C812.022 28.278 812.265 28.0073 812.423 27.774C812.582 27.5407 812.685 27.326 812.731 27.13C812.787 26.9247 812.815 26.7333 812.815 26.556C812.815 26.108 812.661 25.7627 812.353 25.52C812.045 25.268 811.593 25.142 810.995 25.142C810.519 25.142 810.085 25.226 809.693 25.394C809.311 25.562 808.979 25.8187 808.699 26.164L807.425 25.184C807.808 24.6707 808.321 24.274 808.965 23.994C809.619 23.7047 810.347 23.56 811.149 23.56C811.859 23.56 812.475 23.6767 812.997 23.91C813.529 24.134 813.935 24.456 814.215 24.876C814.505 25.296 814.649 25.7953 814.649 26.374C814.649 26.6913 814.607 27.0087 814.523 27.326C814.439 27.634 814.281 27.9607 814.047 28.306C813.814 28.6513 813.473 29.0387 813.025 29.468L809.679 32.646L809.301 31.96H815.027V33.5H807.803ZM820.166 33.64C819.391 33.64 818.691 33.444 818.066 33.052C817.45 32.66 816.965 32.0907 816.61 31.344C816.255 30.588 816.078 29.6733 816.078 28.6C816.078 27.5267 816.255 26.6167 816.61 25.87C816.965 25.114 817.45 24.54 818.066 24.148C818.691 23.756 819.391 23.56 820.166 23.56C820.95 23.56 821.65 23.756 822.266 24.148C822.882 24.54 823.367 25.114 823.722 25.87C824.086 26.6167 824.268 27.5267 824.268 28.6C824.268 29.6733 824.086 30.588 823.722 31.344C823.367 32.0907 822.882 32.66 822.266 33.052C821.65 33.444 820.95 33.64 820.166 33.64ZM820.166 32.058C820.623 32.058 821.02 31.9367 821.356 31.694C821.692 31.442 821.953 31.0593 822.14 30.546C822.336 30.0327 822.434 29.384 822.434 28.6C822.434 27.8067 822.336 27.158 822.14 26.654C821.953 26.1407 821.692 25.7627 821.356 25.52C821.02 25.268 820.623 25.142 820.166 25.142C819.727 25.142 819.335 25.268 818.99 25.52C818.654 25.7627 818.388 26.1407 818.192 26.654C818.005 27.158 817.912 27.8067 817.912 28.6C817.912 29.384 818.005 30.0327 818.192 30.546C818.388 31.0593 818.654 31.442 818.99 31.694C819.335 31.9367 819.727 32.058 820.166 32.058ZM829.586 33.64C828.811 33.64 828.111 33.444 827.486 33.052C826.87 32.66 826.385 32.0907 826.03 31.344C825.675 30.588 825.498 29.6733 825.498 28.6C825.498 27.5267 825.675 26.6167 826.03 25.87C826.385 25.114 826.87 24.54 827.486 24.148C828.111 23.756 828.811 23.56 829.586 23.56C830.37 23.56 831.07 23.756 831.686 24.148C832.302 24.54 832.787 25.114 833.142 25.87C833.506 26.6167 833.688 27.5267 833.688 28.6C833.688 29.6733 833.506 30.588 833.142 31.344C832.787 32.0907 832.302 32.66 831.686 33.052C831.07 33.444 830.37 33.64 829.586 33.64ZM829.586 32.058C830.043 32.058 830.44 31.9367 830.776 31.694C831.112 31.442 831.373 31.0593 831.56 30.546C831.756 30.0327 831.854 29.384 831.854 28.6C831.854 27.8067 831.756 27.158 831.56 26.654C831.373 26.1407 831.112 25.7627 830.776 25.52C830.44 25.268 830.043 25.142 829.586 25.142C829.147 25.142 828.755 25.268 828.41 25.52C828.074 25.7627 827.808 26.1407 827.612 26.654C827.425 27.158 827.332 27.8067 827.332 28.6C827.332 29.384 827.425 30.0327 827.612 30.546C827.808 31.0593 828.074 31.442 828.41 31.694C828.755 31.9367 829.147 32.058 829.586 32.058ZM839.006 33.64C838.231 33.64 837.531 33.444 836.906 33.052C836.29 32.66 835.804 32.0907 835.45 31.344C835.095 30.588 834.918 29.6733 834.918 28.6C834.918 27.5267 835.095 26.6167 835.45 25.87C835.804 25.114 836.29 24.54 836.906 24.148C837.531 23.756 838.231 23.56 839.006 23.56C839.79 23.56 840.49 23.756 841.106 24.148C841.722 24.54 842.207 25.114 842.562 25.87C842.926 26.6167 843.108 27.5267 843.108 28.6C843.108 29.6733 842.926 30.588 842.562 31.344C842.207 32.0907 841.722 32.66 841.106 33.052C840.49 33.444 839.79 33.64 839.006 33.64ZM839.006 32.058C839.463 32.058 839.86 31.9367 840.196 31.694C840.532 31.442 840.793 31.0593 840.98 30.546C841.176 30.0327 841.274 29.384 841.274 28.6C841.274 27.8067 841.176 27.158 840.98 26.654C840.793 26.1407 840.532 25.7627 840.196 25.52C839.86 25.268 839.463 25.142 839.006 25.142C838.567 25.142 838.175 25.268 837.83 25.52C837.494 25.7627 837.228 26.1407 837.032 26.654C836.845 27.158 836.752 27.8067 836.752 28.6C836.752 29.384 836.845 30.0327 837.032 30.546C837.228 31.0593 837.494 31.442 837.83 31.694C838.175 31.9367 838.567 32.058 839.006 32.058Z" fill="black"/>
</svg>
