<svg width="30" height="20" viewBox="0 0 30 20" fill="none" xmlns="http://www.w3.org/2000/svg">
<path d="M11.8889 10C11.8889 10.7956 12.2167 11.5587 12.8001 12.1213C13.3836 12.6839 14.1749 13 15 13C15.8251 13 16.6164 12.6839 17.1999 12.1213C17.7833 11.5587 18.1111 10.7956 18.1111 10C18.1111 9.20435 17.7833 8.44129 17.1999 7.87868C16.6164 7.31607 15.8251 7 15 7C14.1749 7 13.3836 7.31607 12.8001 7.87868C12.2167 8.44129 11.8889 9.20435 11.8889 10Z" stroke="#D2D6DB" stroke-width="2" stroke-linecap="round" stroke-linejoin="round"/>
<path d="M29 10C25.2667 16 20.6 19 15 19C9.4 19 4.73333 16 1 10C4.73333 4 9.4 1 15 1C20.6 1 25.2667 4 29 10Z" stroke="#D2D6DB" stroke-width="2" stroke-linecap="round" stroke-linejoin="round"/>
</svg>
