<svg width="29" height="30" viewBox="0 0 29 30" fill="none" xmlns="http://www.w3.org/2000/svg">
<path d="M12.4348 12.889C11.8744 13.4496 11.5596 14.21 11.5597 15.0027C11.5599 15.7954 11.8749 16.5556 12.4356 17.116C12.9962 17.6765 13.7565 17.9913 14.5492 17.9911C15.342 17.991 16.1022 17.6759 16.6626 17.1153M21.5456 21.9844C19.4492 23.296 17.0229 23.9838 14.5501 23.9675C9.1701 23.9675 4.68676 20.9786 1.1001 15.0008C3.00103 11.8326 5.15303 9.50426 7.5561 8.01579M11.8302 6.30316C12.7254 6.12193 13.6367 6.0318 14.5501 6.03416C19.9301 6.03416 24.4134 9.02305 28.0001 15.0008C27.0048 16.6597 25.9393 18.0898 24.805 19.2899M1.1001 1.55078L28.0001 28.4508" stroke="#D2D6DB" stroke-width="2" stroke-linecap="round" stroke-linejoin="round"/>
</svg>
