<svg width="99" height="56" viewBox="0 0 99 56" fill="none" xmlns="http://www.w3.org/2000/svg">
<g clip-path="url(#clip0_3243_4767)">
<mask id="mask0_3243_4767" style="mask-type:luminance" maskUnits="userSpaceOnUse" x="0" y="0" width="99" height="56">
<path d="M99 0.5H0V55.3168H99V0.5Z" fill="white"/>
</mask>
<g mask="url(#mask0_3243_4767)">
<path d="M34.4603 34.1373H31.5957V20.3438H31.9909C32.0896 20.3438 32.1884 20.3438 32.2872 20.3438C32.3859 20.3438 32.4847 20.3438 32.5835 20.3438C32.781 20.3438 32.9786 20.3437 33.1761 20.4402C33.3737 20.4402 33.5713 20.5366 33.7688 20.6331C33.9664 20.7296 34.1639 20.9225 34.2627 21.1154C34.3615 21.2119 34.4603 21.5012 34.4603 21.7906V34.1373Z" fill="black"/>
<path d="M45.7211 29.892V20.3425H46.0175C46.1162 20.3425 46.215 20.3425 46.3138 20.3425C46.4126 20.3425 46.5114 20.3425 46.6102 20.3425C46.8077 20.3425 47.0053 20.3425 47.2028 20.439C47.4003 20.439 47.5979 20.5355 47.7954 20.6319C47.993 20.7284 48.0918 20.9213 48.2894 21.1142C48.3881 21.3072 48.4869 21.5965 48.4869 21.9824V34.329H46.0175L39.992 25.069V34.2326H37.2263V20.3425C37.3251 20.2461 37.5226 20.2461 37.7202 20.2461C37.9177 20.2461 38.2141 20.2461 38.4116 20.2461C38.9055 20.2461 39.2018 20.3425 39.4982 20.439C39.7945 20.6319 39.992 20.8249 40.1896 21.1142L45.7211 29.892Z" fill="black"/>
<path d="M54.5125 22.5611H50.0675C50.0675 22.3682 50.0675 22.2717 49.9688 22.1753C49.9688 22.0788 49.9688 21.8859 49.9688 21.7894C49.9688 21.4036 50.0675 21.1142 50.3638 20.7284C50.6602 20.439 51.154 20.2461 51.7467 20.2461H61.7235C61.7235 20.5355 61.8219 20.8249 61.8219 21.1142C61.8219 21.5 61.7235 21.7894 61.4271 22.0788C61.1306 22.3682 60.7352 22.5611 60.0439 22.5611H57.3771V34.1362H54.4137V22.5611H54.5125Z" fill="black"/>
<path d="M70.9088 32.014C71.6001 32.014 72.094 32.207 72.2914 32.4963C72.5879 32.7857 72.6869 33.1715 72.6869 33.5574C72.6869 33.7503 72.6869 33.8468 72.6869 33.9432C72.6869 34.0397 72.6869 34.1362 72.6869 34.329H63.5002V20.2461H72.3904C72.3904 20.439 72.3904 20.5355 72.4894 20.6319C72.4894 20.7284 72.4894 20.8249 72.4894 21.0178C72.4894 21.5 72.3904 21.8859 72.094 22.0788C71.7976 22.2717 71.4027 22.4646 70.7114 22.4646H66.5625V25.8407H71.1063V28.0593H66.5625V31.9176H70.9088V32.014Z" fill="black"/>
<path d="M84.2443 24.3001C84.2443 24.8788 84.1453 25.3611 84.0463 25.8434C83.8489 26.2292 83.6515 26.6151 83.454 27.0009C83.1576 27.2903 82.8612 27.5797 82.5647 27.8691C82.2683 28.062 81.8734 28.2549 81.577 28.3513L85.0341 34.0424C84.7382 34.1388 84.4418 34.2353 84.1453 34.3318C83.8489 34.4282 83.5525 34.4282 83.256 34.4282C82.7622 34.4282 82.2683 34.3318 81.9724 34.1388C81.577 33.946 81.2806 33.5601 80.9847 33.0778L78.6138 28.9301H77.4286V34.1388H74.4648V20.3453C75.1567 20.2488 75.848 20.2488 76.5393 20.2488C77.2306 20.2488 77.8235 20.1523 78.3174 20.1523C80.3918 20.1523 81.8734 20.5382 82.8612 21.2134C83.7505 21.8886 84.2443 22.8532 84.2443 24.3001ZM81.1821 24.493C81.1821 23.6248 80.9847 23.0461 80.4903 22.6603C79.9964 22.3709 79.4041 22.178 78.6138 22.178C78.3174 22.178 78.1199 22.178 77.9225 22.178C77.7251 22.178 77.6261 22.178 77.4286 22.178V27.0009H78.4164C79.3051 27.0009 79.898 26.808 80.3918 26.4222C80.9847 26.0363 81.1821 25.3611 81.1821 24.493Z" fill="black"/>
<path d="M42.1649 53.4014C42.0661 53.4979 41.9673 53.5944 41.7697 53.6908C41.5722 53.7873 41.2759 53.9802 40.9795 54.0767C40.6832 54.1732 40.2881 54.2696 39.7942 54.3661C39.3003 54.4625 38.8064 54.4625 38.2138 54.4625C37.0284 54.4625 36.0407 54.2696 35.2504 53.8838C34.4603 53.4979 33.7688 53.0156 33.1761 52.3404C32.5834 51.6652 32.1883 50.8936 31.9908 50.0254C31.6945 49.1573 31.5957 48.1927 31.5957 47.1317C31.5957 46.0706 31.6945 45.106 31.9908 44.2379C32.2871 43.3698 32.6822 42.5981 33.2749 41.9229C33.8676 41.2477 34.559 40.7654 35.3492 40.3796C36.1395 39.9937 37.1272 39.8008 38.3125 39.8008C38.9052 39.8008 39.3991 39.8973 39.7942 39.9937C40.2881 40.0902 40.5845 40.1866 40.9795 40.3796C41.2759 40.476 41.5722 40.669 41.7697 40.7654C41.9673 40.9583 42.1649 41.0548 42.2637 41.1512C42.3624 41.2477 42.4612 41.4406 42.56 41.5371C42.6588 41.7299 42.6588 41.8264 42.6588 42.0193C42.6588 42.3087 42.56 42.5981 42.3624 42.8874C42.1649 43.1768 41.8685 43.4662 41.671 43.6592C41.4734 43.4662 41.2759 43.3698 41.0783 43.1768C40.8808 42.9839 40.5845 42.8874 40.3868 42.6946C40.0905 42.5981 39.7942 42.4052 39.4979 42.4052C39.2016 42.3087 38.8064 42.3087 38.4113 42.3087C37.7199 42.3087 37.1272 42.4052 36.6333 42.6946C36.1395 42.9839 35.7443 43.3698 35.448 43.8521C35.1517 44.3343 34.9541 44.8167 34.8553 45.3954C34.7566 45.9742 34.6578 46.5529 34.6578 47.2281C34.6578 47.9033 34.7566 48.4821 34.8553 49.0608C34.9541 49.6396 35.2504 50.2183 35.5468 50.6042C35.8431 51.0864 36.2382 51.4723 36.7321 51.6652C37.226 51.9546 37.8187 52.0511 38.6089 52.0511C39.004 52.0511 39.3991 51.9546 39.6954 51.8581C39.9918 51.7617 40.2881 51.6652 40.5845 51.4723C40.8808 51.3758 41.0783 51.1829 41.2759 50.99C41.4734 50.7971 41.671 50.7006 41.7697 50.6042C41.8685 50.7006 41.9673 50.7971 42.0661 50.99C42.1649 51.0864 42.2637 51.2794 42.3624 51.4723C42.4612 51.6652 42.56 51.7617 42.6588 51.9546C42.7575 52.1475 42.7575 52.2439 42.7575 52.3404C42.7575 52.5333 42.7575 52.6298 42.6588 52.8227C42.4612 53.1121 42.3624 53.305 42.1649 53.4014Z" fill="black"/>
<path d="M56.7842 47.2293C56.7842 48.1939 56.6852 49.1585 56.389 50.0266C56.1914 50.8948 55.7963 51.6664 55.2037 52.3416C54.7098 53.0168 54.0183 53.4991 53.2281 53.885C52.4379 54.2708 51.4501 54.4637 50.2648 54.4637C49.0795 54.4637 48.0917 54.2708 47.3015 53.885C46.5112 53.4991 45.8198 52.9204 45.3259 52.2452C44.832 51.5699 44.4369 50.7983 44.2394 49.9302C44.0418 49.0621 43.8442 48.0974 43.8442 47.1329C43.8442 46.1683 43.9431 45.2037 44.2394 44.3355C44.5357 43.4674 44.9308 42.6958 45.4247 42.0205C45.9186 41.3453 46.61 40.863 47.499 40.4772C48.2892 40.0914 49.277 39.8984 50.4624 39.8984C51.5489 39.8984 52.5367 40.0914 53.3269 40.4772C54.1171 40.863 54.8086 41.3453 55.3024 42.0205C55.7963 42.6958 56.1914 43.4674 56.389 44.3355C56.6852 45.3002 56.7842 46.1683 56.7842 47.2293ZM53.8208 47.2293C53.8208 46.5541 53.722 45.9753 53.6232 45.3002C53.5245 44.7214 53.3269 44.1427 53.0305 43.7568C52.7342 43.2745 52.4379 42.9852 51.944 42.6958C51.5489 42.4064 50.9562 42.3099 50.3636 42.3099C49.6721 42.3099 49.1782 42.4064 48.6844 42.6958C48.1904 42.9852 47.8941 43.2745 47.5978 43.7568C47.3015 44.2391 47.1039 44.7214 47.0051 45.3002C46.9063 45.8789 46.8076 46.5541 46.8076 47.2293C46.8076 47.9045 46.9063 48.4833 47.0051 49.1585C47.1039 49.7372 47.3015 50.316 47.5978 50.7983C47.8941 51.2806 48.1904 51.6664 48.6844 51.9558C49.0795 52.2452 49.6721 52.3416 50.2648 52.3416C50.8575 52.3416 51.4501 52.2452 51.8452 51.9558C52.2403 51.6664 52.6354 51.2806 52.9318 50.7983C53.2281 50.316 53.4257 49.8337 53.5245 49.1585C53.722 48.5797 53.8208 47.9045 53.8208 47.2293Z" fill="black"/>
<path d="M61.4264 40.1875C61.9202 40.1875 62.2167 40.2839 62.5131 40.4769C62.8095 40.6698 63.007 40.9592 63.106 41.345L66.3656 48.7723L69.6253 41.4414C69.8227 40.9592 70.1191 40.6698 70.4156 40.4769C70.7114 40.2839 71.0079 40.1875 71.4033 40.1875C71.6992 40.1875 71.9956 40.1875 72.292 40.2839C72.5885 40.2839 72.7859 40.3804 72.8849 40.3804L73.8727 54.174H71.1069L70.4156 45.0104L67.5508 51.2803H65.0815L62.3157 45.2033L61.7228 54.174H58.957L60.0438 40.3804C60.1422 40.3804 60.4386 40.2839 60.6361 40.2839C60.8341 40.2839 61.1305 40.1875 61.4264 40.1875Z" fill="black"/>
<path d="M78.5149 40.1875C79.0087 40.1875 79.3052 40.2839 79.6016 40.4769C79.8981 40.6698 80.0955 40.9592 80.1939 41.345L83.4536 48.7723L86.7138 41.4414C86.9112 40.9592 87.2076 40.6698 87.5035 40.4769C87.7999 40.2839 88.0964 40.1875 88.4912 40.1875C88.7877 40.1875 89.0841 40.1875 89.3806 40.2839C89.677 40.2839 89.8744 40.3804 89.9734 40.3804L90.9612 54.174H88.1954L87.5035 45.0104L84.6393 51.2803H82.2684L79.5026 45.2033L78.9103 54.174H76.1445L77.2307 40.3804C77.3297 40.3804 77.6261 40.2839 77.8236 40.2839C77.9226 40.2839 78.2184 40.1875 78.5149 40.1875Z" fill="black"/>
<path d="M25.2766 20.4049C18.5956 17.7848 10.7565 19.1822 5.41164 24.4223C-1.80388 31.4965 -1.80388 42.9375 5.41164 50.0118C10.7565 55.2519 18.5956 56.6496 25.2766 54.0293V45.645C23.9404 46.2563 22.5151 46.6056 21.0007 46.6056C15.6559 46.6056 11.3801 42.4135 11.3801 37.1734C11.3801 31.9332 15.6559 27.7411 21.0007 27.7411C22.5151 27.7411 24.0295 28.0904 25.2766 28.7018V20.4049Z" fill="#D21957"/>
<path d="M22.2498 12.0025C24.8814 9.41161 24.8814 5.12333 22.2498 2.44314C19.6181 -0.147712 15.2623 -0.147712 12.5399 2.44314C9.8175 5.03399 9.90824 9.32228 12.5399 12.0025C15.2623 14.5933 19.6181 14.5933 22.2498 12.0025Z" fill="#D21957"/>
</g>
</g>
<defs>
<clipPath id="clip0_3243_4767">
<rect width="99" height="55" fill="white" transform="translate(0 0.5)"/>
</clipPath>
</defs>
</svg>
