<svg width="24" height="20" viewBox="0 0 24 20" fill="none" xmlns="http://www.w3.org/2000/svg">
<path d="M2 4.28571C2 3.67951 2.23413 3.09812 2.65087 2.66947C3.06762 2.24082 3.63285 2 4.22222 2H19.7778C20.3671 2 20.9324 2.24082 21.3491 2.66947C21.7659 3.09812 22 3.67951 22 4.28571M2 4.28571V15.7143C2 16.3205 2.23413 16.9019 2.65087 17.3305C3.06762 17.7592 3.63285 18 4.22222 18H19.7778C20.3671 18 20.9324 17.7592 21.3491 17.3305C21.7659 16.9019 22 16.3205 22 15.7143V4.28571M2 4.28571L12 11.1429L22 4.28571" stroke="#D21957" stroke-width="2.5" stroke-linecap="round" stroke-linejoin="round"/>
</svg>
