<svg width="64" height="64" viewBox="0 0 64 64" fill="none" xmlns="http://www.w3.org/2000/svg">
<path d="M22 32H42M32 22V42M2 32C2 35.9397 2.77597 39.8407 4.28361 43.4805C5.79125 47.1203 8.00104 50.4274 10.7868 53.2132C13.5726 55.999 16.8797 58.2087 20.5195 59.7164C24.1593 61.224 28.0603 62 32 62C35.9397 62 39.8407 61.224 43.4805 59.7164C47.1203 58.2087 50.4274 55.999 53.2132 53.2132C55.999 50.4274 58.2087 47.1203 59.7164 43.4805C61.224 39.8407 62 35.9397 62 32C62 24.0435 58.8393 16.4129 53.2132 10.7868C47.5871 5.16071 39.9565 2 32 2C24.0435 2 16.4129 5.16071 10.7868 10.7868C5.1607 16.4129 2 24.0435 2 32Z" stroke="#D21957" stroke-width="3" stroke-linecap="round" stroke-linejoin="round"/>
</svg>
