<svg width="50" height="50" viewBox="0 0 50 50" fill="none" xmlns="http://www.w3.org/2000/svg">
<rect width="50" height="50" rx="25" fill="#F41560"/>
<path d="M25.5254 9C21.2159 9 18.4245 11.0074 16.2331 14.5875C15.8355 15.237 15.9581 16.1274 16.5126 16.6055L18.8417 18.6133C19.4018 19.0961 20.1987 18.9832 20.6371 18.3587C21.9896 16.4324 22.9928 15.3233 25.1053 15.3233C26.7663 15.3233 28.8208 16.5386 28.8208 18.3698C28.8208 19.7542 27.8156 20.4651 26.1756 21.5105C24.263 22.7296 21.7321 24.2467 21.7321 28.042V28.6429C21.7321 29.4565 22.3123 30.1161 23.0279 30.1161H26.9408C27.6564 30.1161 28.2366 29.4565 28.2366 28.6429V28.2885C28.2366 25.6576 35 25.548 35 18.4286C35.0001 13.0671 30.1083 9 25.5254 9ZM24.9844 33.4958C22.9221 33.4958 21.2443 35.4033 21.2443 37.7479C21.2443 40.0926 22.9221 42 24.9844 42C27.0466 42 28.7244 40.0925 28.7244 37.7479C28.7244 35.4033 27.0466 33.4958 24.9844 33.4958Z" fill="white"/>
</svg>
