<svg width="18" height="18" viewBox="0 0 18 18" fill="none" xmlns="http://www.w3.org/2000/svg">
<path d="M15.3 0C16.0161 0 16.7028 0.284464 17.2092 0.790812C17.7155 1.29716 18 1.98392 18 2.7V15.3C18 16.0161 17.7155 16.7028 17.2092 17.2092C16.7028 17.7155 16.0161 18 15.3 18H2.7C1.98392 18 1.29716 17.7155 0.790812 17.2092C0.284464 16.7028 0 16.0161 0 15.3V2.7C0 1.98392 0.284464 1.29716 0.790812 0.790812C1.29716 0.284464 1.98392 0 2.7 0H15.3ZM9 4.5C8.7613 4.5 8.53239 4.59482 8.3636 4.7636C8.19482 4.93239 8.1 5.1613 8.1 5.4V10.4265L6.0363 8.3637L5.9517 8.289C5.77081 8.14913 5.54346 8.08336 5.31583 8.10504C5.0882 8.12673 4.87735 8.23424 4.72612 8.40575C4.57489 8.57726 4.49462 8.7999 4.50159 9.02845C4.50857 9.25701 4.60229 9.47434 4.7637 9.6363L8.3637 13.2363L8.4483 13.311L8.5311 13.3686L8.6193 13.4154L8.7183 13.455L8.8191 13.482L8.9325 13.4973L9 13.5L9.1053 13.4937L9.2394 13.4676L9.3339 13.4361L9.4356 13.3875L9.5355 13.3236C9.57135 13.2972 9.60505 13.268 9.6363 13.2363L13.2363 9.6363L13.311 9.5517C13.4453 9.37854 13.5119 9.16231 13.4981 8.94359C13.4843 8.72486 13.3913 8.51867 13.2363 8.3637L13.1517 8.289C12.9785 8.15467 12.7623 8.08815 12.5436 8.1019C12.3249 8.11565 12.1187 8.20874 11.9637 8.3637L9.9 10.4265V5.4L9.8937 5.2947C9.86791 5.07577 9.76267 4.87393 9.59793 4.72744C9.4332 4.58096 9.22044 4.50003 9 4.5Z" fill="#A8ADAF"/>
</svg>
