<svg width="18" height="18" viewBox="0 0 18 18" fill="none" xmlns="http://www.w3.org/2000/svg">
<path d="M13.5002 1.20592C14.8576 1.9897 15.9868 3.11441 16.776 4.46873C17.5652 5.82304 17.987 7.35999 17.9997 8.92742C18.0124 10.4948 17.6154 12.0384 16.8482 13.4053C16.081 14.7722 14.9701 15.915 13.6255 16.7206C12.2809 17.5262 10.7492 17.9667 9.182 17.9984C7.61484 18.0301 6.06657 17.652 4.69046 16.9014C3.31434 16.1509 2.15811 15.054 1.33622 13.7192C0.514322 12.3845 0.0552691 10.8583 0.00450016 9.29162L0 9.00001L0.00450016 8.70841C0.0549036 7.15408 0.507199 5.63934 1.31729 4.31185C2.12738 2.98436 3.26763 1.88943 4.62686 1.13381C5.98609 0.378189 7.51792 -0.0123399 9.07302 0.000297225C10.6281 0.0129343 12.1534 0.428306 13.5002 1.20592ZM9.00011 3.59995C8.77967 3.59998 8.5669 3.68091 8.40217 3.82739C8.23743 3.97388 8.13219 4.17573 8.1064 4.39466L8.1001 4.49996V9.00001L8.1082 9.11792C8.12872 9.27407 8.18986 9.4221 8.2855 9.54722L8.3638 9.63722L11.0638 12.3373L11.1484 12.4111C11.3063 12.5335 11.5004 12.6 11.7001 12.6C11.8999 12.6 12.094 12.5335 12.2519 12.4111L12.3365 12.3364L12.4112 12.2518C12.5336 12.0939 12.6001 11.8998 12.6001 11.7C12.6001 11.5003 12.5336 11.3062 12.4112 11.1483L12.3365 11.0637L9.90012 8.62651V4.49996L9.89382 4.39466C9.86803 4.17573 9.76279 3.97388 9.59805 3.82739C9.43332 3.68091 9.22055 3.59998 9.00011 3.59995Z" fill="#BF7723"/>
</svg>
