<svg width="18" height="18" viewBox="0 0 18 18" fill="none" xmlns="http://www.w3.org/2000/svg">
<path d="M9 0C9.7001 4.25546e-05 10.3762 0.255067 10.9019 0.717394L11.0406 0.847911L11.6688 1.47619C11.8413 1.6475 12.0664 1.75564 12.3079 1.78313L12.4294 1.79033H13.3296C14.0652 1.79029 14.7729 2.07168 15.3076 2.5768C15.8424 3.08192 16.1636 3.77249 16.2054 4.50689L16.2099 4.67071V5.57083C16.2099 5.81386 16.2928 6.05059 16.4422 6.23962L16.5232 6.32963L17.1506 6.95791C17.6706 7.47498 17.9738 8.17093 17.9984 8.90385C18.023 9.63677 17.7671 10.3515 17.2829 10.9022L17.1524 11.0408L16.5241 11.6691C16.3528 11.8416 16.2446 12.0667 16.2171 12.3082L16.2099 12.4297V13.3298C16.21 14.0654 15.9286 14.7732 15.4235 15.3079C14.9184 15.8427 14.2278 16.1639 13.4934 16.2057L13.3296 16.2102H12.4294C12.1868 16.2103 11.9512 16.2921 11.7607 16.4424L11.6706 16.5235L11.0424 17.1508C10.5253 17.6709 9.82935 17.9741 9.09643 17.9987C8.36351 18.0232 7.64881 17.7674 7.09805 17.2832L6.95943 17.1526L6.33115 16.5244C6.15872 16.3531 5.93356 16.2449 5.69207 16.2174L5.57055 16.2102H4.67043C3.93484 16.2103 3.22711 15.9289 2.69236 15.4238C2.15762 14.9186 1.8364 14.2281 1.79456 13.4937L1.79006 13.3298V12.4297C1.78998 12.187 1.70817 11.9514 1.55783 11.7609L1.47682 11.6709L0.849435 11.0426C0.32942 10.5256 0.0262077 9.82963 0.00162089 9.09671C-0.0229659 8.36379 0.232925 7.64909 0.717117 7.09833L0.847634 6.95971L1.47592 6.33143C1.64722 6.159 1.75536 5.93384 1.78286 5.69234L1.79006 5.57083V4.67071L1.79456 4.50689C1.83475 3.8007 2.13339 3.13398 2.63355 2.63382C3.13371 2.13366 3.80042 1.83503 4.50661 1.79483L4.67043 1.79033H5.57055C5.81324 1.79025 6.04883 1.70845 6.23934 1.5581L6.32935 1.47709L6.95763 0.849711C7.22527 0.580476 7.54349 0.366803 7.89399 0.220978C8.2445 0.0751539 8.62037 5.49756e-05 9 0ZM12.3277 6.55466C12.1589 6.38591 11.93 6.29111 11.6914 6.29111C11.4527 6.29111 11.2238 6.38591 11.055 6.55466L8.09088 9.51784L6.92703 8.35489L6.84242 8.28018C6.6615 8.14029 6.43412 8.07451 6.20646 8.0962C5.9788 8.11789 5.76793 8.22542 5.61668 8.39695C5.46543 8.56848 5.38514 8.79115 5.39212 9.01973C5.3991 9.24832 5.49283 9.46568 5.65426 9.62766L7.4545 11.4279L7.53911 11.5026C7.7123 11.6369 7.92855 11.7035 8.1473 11.6897C8.36605 11.676 8.57227 11.5829 8.72726 11.4279L12.3277 7.82742L12.4024 7.74281C12.5368 7.56963 12.6033 7.35337 12.5896 7.13462C12.5758 6.91587 12.4827 6.70965 12.3277 6.55466Z" fill="#00711E"/>
</svg>
